<svg width="54" height="54" viewBox="0 0 54 54" fill="none" xmlns="http://www.w3.org/2000/svg">
<path fill-rule="evenodd" clip-rule="evenodd" d="M8.28555 53.2053C7.24427 53.2058 6.2131 53.0011 5.25099 52.6029C4.28888 52.2046 3.41469 51.6207 2.67839 50.8844C1.9421 50.1481 1.35813 49.2739 0.959887 48.3118C0.561641 47.3497 0.356918 46.3185 0.357423 45.2772V8.42007C0.356918 7.37879 0.561641 6.34762 0.959887 5.38551C1.35813 4.4234 1.9421 3.54921 2.67839 2.81291C3.41469 2.07662 4.28888 1.49266 5.25099 1.09441C6.2131 0.696163 7.24427 0.49144 8.28555 0.491944H45.1427C46.184 0.49144 47.2151 0.696163 48.1772 1.09441C49.1394 1.49266 50.0136 2.07662 50.7498 2.81291C51.4861 3.54921 52.0701 4.4234 52.4684 5.38551C52.8666 6.34762 53.0713 7.37879 53.0708 8.42007V45.2772C53.0713 46.3185 52.8666 47.3497 52.4684 48.3118C52.0701 49.2739 51.4861 50.1481 50.7498 50.8844C50.0136 51.6207 49.1394 52.2046 48.1772 52.6029C47.2151 53.0011 46.184 53.2058 45.1427 53.2053H8.28555ZM40.4972 30.9375H34.9302V49.366H45.1811C45.7185 49.366 46.2507 49.2602 46.7473 49.0545C47.2438 48.8488 47.695 48.5474 48.075 48.1673C48.4551 47.7873 48.7565 47.3361 48.9622 46.8396C49.1679 46.343 49.2738 45.8108 49.2738 45.2734V8.41623C49.2738 7.33078 48.8426 6.2898 48.075 5.52227C47.3075 4.75474 46.2665 4.32355 45.1811 4.32355H8.32394C7.23849 4.32355 6.19751 4.75474 5.42998 5.52227C4.66245 6.2898 4.23126 7.33078 4.23126 8.41623V45.2734C4.23126 46.3588 4.66245 47.3998 5.42998 48.1673C6.19751 48.9349 7.23849 49.366 8.32394 49.366H28.7873V30.9375H22.6445V24.7946H28.7873V21.4967C28.7873 15.2386 31.8319 12.5127 37.0034 12.5127C39.4414 12.5127 40.7505 12.6894 41.3802 12.7777H41.4186V18.6518H37.8788C36.0935 18.6518 35.2489 19.4196 34.9955 20.9553C34.9338 21.358 34.9043 21.765 34.9072 22.1724V24.7946H41.3572L40.4818 30.9375H40.4972Z" fill="white"/>
</svg>
