<svg width="55" height="55" viewBox="0 0 55 55" fill="none" xmlns="http://www.w3.org/2000/svg">
<path d="M50.0802 0.839355H4.59946C3.50289 0.839355 2.45124 1.27497 1.67584 2.05036C0.900454 2.82575 0.464844 3.8774 0.464844 4.97397V50.4547C0.464844 51.5513 0.900454 52.603 1.67584 53.3784C2.45124 54.1537 3.50289 54.5894 4.59946 54.5894H50.0802C51.1768 54.5894 52.2285 54.1537 53.0038 53.3784C53.7792 52.603 54.2148 51.5513 54.2148 50.4547V4.97397C54.2148 3.8774 53.7792 2.82575 53.0038 2.05036C52.2285 1.27497 51.1768 0.839355 50.0802 0.839355ZM50.0802 50.4547H4.59946V4.97397H50.0802V50.4547ZM19.0706 23.5797V40.1182C19.0706 40.6665 18.8528 41.1923 18.4651 41.58C18.0774 41.9677 17.5516 42.1855 17.0033 42.1855C16.455 42.1855 15.9292 41.9677 15.5415 41.58C15.1538 41.1923 14.936 40.6665 14.936 40.1182V23.5797C14.936 23.0315 15.1538 22.5056 15.5415 22.1179C15.9292 21.7302 16.455 21.5124 17.0033 21.5124C17.5516 21.5124 18.0774 21.7302 18.4651 22.1179C18.8528 22.5056 19.0706 23.0315 19.0706 23.5797ZM41.811 30.8153V40.1182C41.811 40.6665 41.5932 41.1923 41.2055 41.58C40.8178 41.9677 40.292 42.1855 39.7437 42.1855C39.1954 42.1855 38.6696 41.9677 38.2819 41.58C37.8942 41.1923 37.6764 40.6665 37.6764 40.1182V30.8153C37.6764 29.4446 37.1319 28.13 36.1626 27.1608C35.1934 26.1916 33.8788 25.647 32.5081 25.647C31.1374 25.647 29.8228 26.1916 28.8536 27.1608C27.8844 28.13 27.3398 29.4446 27.3398 30.8153V40.1182C27.3398 40.6665 27.122 41.1923 26.7343 41.58C26.3466 41.9677 25.8208 42.1855 25.2725 42.1855C24.7243 42.1855 24.1984 41.9677 23.8107 41.58C23.423 41.1923 23.2052 40.6665 23.2052 40.1182V23.5797C23.2078 23.0734 23.3961 22.5855 23.7345 22.2088C24.0729 21.8321 24.5377 21.5926 25.0409 21.5359C25.5441 21.4792 26.0506 21.6091 26.4644 21.9011C26.8781 22.193 27.1703 22.6267 27.2856 23.1198C28.6841 22.1711 30.3146 21.6212 32.002 21.5293C33.6894 21.4373 35.37 21.8068 36.8633 22.5979C38.3566 23.3891 39.6062 24.572 40.4779 26.0198C41.3496 27.4675 41.8104 29.1254 41.811 30.8153ZM20.1043 16.3442C20.1043 16.9575 19.9224 17.557 19.5817 18.067C19.2409 18.5769 18.7566 18.9744 18.19 19.2091C17.6234 19.4438 16.9999 19.5052 16.3983 19.3855C15.7968 19.2659 15.2443 18.9706 14.8106 18.5369C14.3769 18.1032 14.0816 17.5507 13.9619 16.9491C13.8423 16.3476 13.9037 15.7241 14.1384 15.1575C14.3731 14.5909 14.7706 14.1065 15.2805 13.7658C15.7905 13.4251 16.39 13.2432 17.0033 13.2432C17.8257 13.2432 18.6145 13.5699 19.196 14.1515C19.7776 14.733 20.1043 15.5217 20.1043 16.3442Z" fill="white"/>
</svg>
