<?xml version="1.0" encoding="utf-8"?>
<!-- Generator: Adobe Illustrator 24.0.3, SVG Export Plug-In . SVG Version: 6.00 Build 0)  -->
<!DOCTYPE svg PUBLIC "-//W3C//DTD SVG 1.1//EN" "http://www.w3.org/Graphics/SVG/1.1/DTD/svg11.dtd" [
	<!ENTITY ns_extend "http://ns.adobe.com/Extensibility/1.0/">
	<!ENTITY ns_ai "http://ns.adobe.com/AdobeIllustrator/10.0/">
	<!ENTITY ns_graphs "http://ns.adobe.com/Graphs/1.0/">
	<!ENTITY ns_vars "http://ns.adobe.com/Variables/1.0/">
	<!ENTITY ns_imrep "http://ns.adobe.com/ImageReplacement/1.0/">
	<!ENTITY ns_sfw "http://ns.adobe.com/SaveForWeb/1.0/">
	<!ENTITY ns_custom "http://ns.adobe.com/GenericCustomNamespace/1.0/">
	<!ENTITY ns_adobe_xpath "http://ns.adobe.com/XPath/1.0/">
]>
<svg version="1.1" id="Layer_1" xmlns:x="&ns_extend;" xmlns:i="&ns_ai;" xmlns:graph="&ns_graphs;"
	 xmlns="http://www.w3.org/2000/svg" xmlns:xlink="http://www.w3.org/1999/xlink" x="0px" y="0px" viewBox="0 0 1418.3 1536"
	 style="enable-background:new 0 0 1418.3 1536;" xml:space="preserve">
<metadata>
	<sfw  xmlns="&ns_sfw;">
		<slices></slices>
		<sliceSourceBounds  bottomLeftOrigin="true" height="1536" width="1418.3" x="0" y="0.2"></sliceSourceBounds>
	</sfw>
</metadata>
<path d="M905,1533.7c-110.9-12.1-174.6-59-279.3-205.7c-51.9-72.7-127.1-190.6-171.5-268.9l-27.5-48.5H294.3l0,178
	c0,109.8,2.5,187,6.4,201.6c10.6,39,29.7,54.1,78.1,61.6c90.1,13.9,80.2,9,80.2,40.2v27.7H0.1v-28c0-15.4,1.1-28,2.4-28
	c17.8,0,94.7-19.3,105.8-26.6c8.1-5.3,19.5-22,25.3-37.1c9.9-25.6,10.6-57.1,10.6-451.2c0-335.4-1.6-428.3-7.7-445.6
	c-10.9-30.7-35.9-49.6-76.1-57.4c-65.8-12.8-60.4-9.1-60.4-41.6V375h273.3c289.7,0,314.4,1.9,385.8,29.4c78,30,142,95.8,164.9,169.3
	c17,54.7,17.1,136.8,0.1,191c-16.2,51.6-63.4,121.4-105.2,155.6C684.9,948.2,611.8,987,593.3,987c-8.6,0-6.8,6,11.1,36.8
	c65.6,113,205.8,301.9,270.5,364.5c37.6,36.4,90,67.3,129.2,76l31.7,7.1v25.7c0,21.3-2.3,26.5-13.2,30.6
	C1001.1,1535.6,947.5,1538.4,905,1533.7L905,1533.7z M483.3,916.3c45.6-8.6,100.3-36.1,128.8-64.6c78.6-78.6,87.2-234.5,17.2-314
	c-52.7-59.9-98.5-74.3-236.4-74.4h-98.6v452.3l13.2,2.5C334.6,923.4,452.7,922.2,483.3,916.3L483.3,916.3z M1136.1,633.8
	c-89.7-18.9-149-84.5-164.7-182.3c-7.9-49-8-215-0.1-264.8c12.7-81.2,60.8-145.6,127.1-170.4c64.3-24.1,148.6-21.2,205.2,7
	c41.2,20.5,97.1,83.7,97.1,109.8c0,5.8-80.9,39.8-84.4,35.5c-1.1-1.3-10.3-14.7-20.4-29.8c-24.1-35.6-57.2-52.1-104.9-52.1
	c-48.8,0-83.2,22.5-106.3,69.5c-16,32.6-16.5,36.2-18.3,149.6c-1.5,93.4-0.1,122.5,7.5,148.6c18.4,63.3,65.1,95.1,132.5,90.2
	c68.9-5,111.4-56.5,111.8-135.7l0.2-33.8h-117.7v-82.4h217.7l-0.1,63.3c-0.1,120.2-18.9,180.5-71.2,227.4
	c-16.3,14.6-44.1,32-62.4,38.8C1246.9,636.3,1174.8,641.9,1136.1,633.8L1136.1,633.8z"/>
</svg>
