<svg width="54" height="55" viewBox="0 0 54 55" fill="none" xmlns="http://www.w3.org/2000/svg">
<g clip-path="url(#clip0_84_545)">
<mask id="mask0_84_545" style="mask-type:luminance" maskUnits="userSpaceOnUse" x="0" y="0" width="54" height="55">
<path d="M0.25 0.839233H54V54.5892H0.25V0.839233Z" fill="white"/>
</mask>
<g mask="url(#mask0_84_545)">
<path fill-rule="evenodd" clip-rule="evenodd" d="M39.2523 33.049C38.5849 32.7153 35.3129 31.1073 34.7037 30.8833C34.0946 30.6594 33.6511 30.5519 33.2055 31.2193C32.762 31.8844 31.4877 33.3827 31.1003 33.8261C30.7106 34.2718 30.3231 34.3256 29.658 33.9941C28.9928 33.6582 26.8473 32.9572 24.3054 30.6907C22.3278 28.9259 20.9908 26.7468 20.6033 26.0794C20.2159 25.4143 20.5608 25.0537 20.8945 24.7222C21.1946 24.4244 21.5596 23.9451 21.8933 23.5576C22.227 23.1702 22.3368 22.8902 22.5585 22.4446C22.7824 22.0011 22.6705 21.6137 22.5025 21.28C22.3368 20.9463 21.0065 17.6698 20.451 16.3372C19.9113 15.0405 19.3626 15.2174 18.955 15.195C18.5653 15.1771 18.1219 15.1726 17.6784 15.1726C17.235 15.1726 16.5139 15.3384 15.9047 16.0058C15.2933 16.6709 13.5755 18.2812 13.5755 21.5577C13.5755 24.832 15.9584 27.9965 16.2921 28.4422C16.6258 28.8879 20.9841 35.6088 27.6603 38.4912C29.2504 39.1765 30.4889 39.5863 31.4541 39.8909C33.0487 40.3993 34.4999 40.3276 35.6466 40.1552C36.9232 39.9648 39.5838 38.5449 40.1392 36.9907C40.6946 35.4364 40.6924 34.1038 40.5267 33.8261C40.3609 33.5484 39.9175 33.3827 39.2501 33.049M27.1071 49.6286H27.0981C23.1328 49.6294 19.2403 48.5634 15.8285 46.5425L15.0223 46.0632L6.64177 48.2625L8.87911 40.0925L8.35281 39.2549C6.13582 35.7261 4.96262 31.6421 4.9688 27.4747C4.97328 15.2689 14.9036 5.33863 27.116 5.33863C30.0248 5.32979 32.9062 5.89922 35.5929 7.01381C38.2796 8.1284 40.718 9.76592 42.7662 11.8312C44.8277 13.8833 46.4617 16.324 47.5734 19.0119C48.6852 21.6998 49.2527 24.5816 49.2431 27.4904C49.2386 39.6961 39.3083 49.6286 27.1071 49.6286ZM45.9465 8.65098C43.4788 6.16788 40.543 4.1989 37.3093 2.85802C34.0755 1.51715 30.6078 0.831002 27.1071 0.839308C12.4289 0.839308 0.478437 12.7875 0.473958 27.4724C0.466733 32.1459 1.69274 36.7386 4.02818 40.7868L0.25 54.5893L14.3683 50.885C18.2745 53.0112 22.6507 54.1261 27.0981 54.128H27.1093C41.7876 54.128 53.738 42.1798 53.7424 27.4926C53.7534 23.9927 53.0702 20.5254 51.7324 17.2913C50.3947 14.0572 48.4288 11.1204 45.9487 8.65098" fill="black"/>
</g>
</g>
<defs>
<clipPath id="clip0_84_545">
<rect width="53.75" height="53.75" fill="white" transform="translate(0.25 0.839233)"/>
</clipPath>
</defs>
</svg>
